<svg width="21724" height="4091" viewBox="0 0 21724 4091" fill="none" xmlns="http://www.w3.org/2000/svg">
<path d="M6060.03 3916.58C5791.2 3916.58 5552.13 3864.74 5342.82 3761.07C5133.51 3655.47 4969.33 3509.56 4850.28 3323.33C4731.22 3135.18 4671.69 2918.24 4671.69 2672.49C4671.69 2426.74 4731.22 2209.8 4850.28 2021.65C4969.33 1831.58 5133.51 1682.79 5342.82 1575.27C5552.13 1467.76 5791.2 1414 6060.03 1414C6328.87 1414 6566.02 1467.76 6771.49 1575.27C6976.95 1682.79 7137.3 1831.58 7252.51 2021.65C7369.65 2209.8 7428.21 2426.74 7428.21 2672.49C7428.21 2918.24 7369.65 3135.18 7252.51 3323.33C7137.3 3509.56 6976.95 3655.47 6771.49 3761.07C6566.02 3864.74 6328.87 3916.58 6060.03 3916.58ZM6060.03 2995.03C6123.4 2995.03 6177.17 2982.55 6221.34 2957.59C6265.5 2930.71 6299.11 2892.32 6322.15 2842.4C6347.11 2792.48 6359.59 2733.93 6359.59 2666.73C6359.59 2599.53 6347.11 2540.98 6322.15 2491.06C6299.11 2441.14 6265.5 2402.74 6221.34 2375.87C6177.17 2348.99 6123.4 2335.55 6060.03 2335.55C5996.67 2335.55 5941.94 2348.99 5895.85 2375.87C5851.69 2402.74 5817.12 2441.14 5792.16 2491.06C5767.2 2540.98 5754.71 2599.53 5754.71 2666.73C5754.71 2733.93 5767.2 2792.48 5792.16 2842.4C5817.12 2892.32 5851.69 2930.71 5895.85 2957.59C5941.94 2982.55 5996.67 2995.03 6060.03 2995.03Z" fill="url(#paint0_linear_1415_15)"/>
<path d="M8055.14 3847.46C7745.73 3847.46 7494.91 3596.66 7494.88 3287.26L7494.64 1038.16C7494.61 726.26 7747.45 473.402 8059.34 473.402C8371.22 473.402 8624.04 726.225 8624.04 1038.1V1759.58C8645.16 1709.66 8689.33 1658.79 8756.54 1606.95C8825.67 1553.19 8914 1508.07 9021.53 1471.6C9129.07 1433.2 9250.04 1414 9384.46 1414C9620.65 1414 9822.28 1473.52 9989.34 1592.55C10158.3 1711.58 10287 1866.13 10375.3 2056.2C10463.6 2246.27 10507.8 2449.78 10507.8 2666.73C10507.8 2883.68 10463.6 3087.19 10375.3 3277.25C10287 3467.32 10158.3 3621.88 9989.34 3740.91C9822.28 3858.02 9620.65 3916.58 9384.46 3916.58C9282.69 3916.58 9181.87 3899.3 9082.02 3864.74C8984.09 3830.18 8894.79 3783.15 8814.14 3723.63C8733.49 3662.19 8667.25 3593.08 8615.4 3516.28C8615.4 3699.19 8467.12 3847.46 8284.22 3847.46H8055.14ZM9398.86 2666.73C9398.86 2601.45 9382.54 2540.02 9349.9 2482.42C9317.25 2424.82 9271.17 2378.75 9211.64 2344.19C9154.03 2307.71 9086.82 2289.47 9010.01 2289.47C8933.2 2289.47 8865.99 2307.71 8808.38 2344.19C8750.78 2378.75 8705.65 2424.82 8673.01 2482.42C8640.36 2540.02 8624.04 2601.45 8624.04 2666.73C8624.04 2732.01 8640.36 2793.44 8673.01 2851.04C8705.65 2908.64 8750.78 2954.71 8808.38 2989.27C8865.99 3023.83 8933.2 3041.11 9010.01 3041.11C9086.82 3041.11 9154.03 3023.83 9211.64 2989.27C9271.17 2954.71 9317.25 2908.64 9349.9 2851.04C9382.54 2793.44 9398.86 2732.01 9398.86 2666.73Z" fill="url(#paint1_linear_1415_15)"/>
<path d="M11133.2 3847.46C10820.6 3847.46 10567.2 3594.06 10567.2 3281.47V2049.11C10567.2 1736.52 10820.6 1483.12 11133.2 1483.12C11445.8 1483.12 11699.2 1736.52 11699.2 2049.11V3281.47C11699.2 3594.06 11445.8 3847.46 11133.2 3847.46ZM11146.1 1221.05C10977.1 1221.05 10833.1 1161.53 10714.1 1042.5C10596.9 921.548 10538.4 778.516 10538.4 613.406C10538.4 448.295 10596.9 305.263 10714.1 184.31C10833.1 61.4365 10977.1 0 11146.1 0C11257.5 0 11359.3 27.8385 11451.4 83.5154C11543.6 139.192 11617.5 213.108 11673.2 305.263C11730.8 397.418 11759.6 500.132 11759.6 613.406C11759.6 778.516 11699.2 921.548 11578.2 1042.5C11459.1 1161.53 11315.1 1221.05 11146.1 1221.05Z" fill="url(#paint2_linear_1415_15)"/>
<path d="M13225.8 3041.11C13306.4 3041.11 13374.6 3025.75 13430.3 2995.03C13498.8 2958.49 13594.4 2971.41 13637.8 3035.84L13950.4 3500.26C14014.6 3595.56 13992.8 3722.07 13891.1 3775.47C13814.3 3813.86 13719.3 3846.5 13606 3873.38C13494.6 3902.18 13366.9 3916.58 13222.9 3916.58C12911.8 3916.58 12646.8 3862.82 12427.9 3755.31C12210.9 3647.79 12044.8 3499.96 11929.6 3311.81C11816.3 3123.66 11759.6 2907.68 11759.6 2663.85C11759.6 2418.1 11816.3 2202.12 11929.6 2015.89C12044.8 1827.74 12210.9 1680.87 12427.9 1575.27C12646.8 1467.76 12911.8 1414 13222.9 1414C13363.1 1414 13489.8 1427.44 13603.1 1454.32C13718.3 1481.2 13816.2 1512.87 13896.9 1549.35C14003.7 1596.52 14025.2 1723.5 13959.2 1819.77L13598.5 2345.7C13575.4 2379.35 13525.4 2385.97 13490.7 2364.35C13461.9 2345.15 13425.5 2327.87 13381.3 2312.51C13337.1 2297.15 13285.3 2289.47 13225.8 2289.47C13150.9 2289.47 13084.6 2307.71 13027 2344.19C12969.4 2380.67 12924.3 2427.7 12891.6 2485.3C12859 2540.98 12842.7 2600.49 12842.7 2663.85C12842.7 2727.21 12859 2787.68 12891.6 2845.28C12924.3 2902.88 12969.4 2949.91 13027 2986.39C13084.6 3022.87 13150.9 3041.11 13225.8 3041.11Z" fill="url(#paint3_linear_1415_15)"/>
<path d="M16059.8 3847.46C15876.8 3847.46 15728.6 3699.19 15728.6 3516.28C15709.4 3550.84 15666.2 3600.76 15599 3666.03C15533.7 3729.39 15447.3 3786.99 15339.7 3838.82C15234.1 3890.66 15110.3 3916.58 14968.2 3916.58C14732 3916.58 14528.4 3858.02 14357.5 3740.91C14188.5 3621.88 14058.9 3467.32 13968.7 3277.25C13878.4 3087.19 13833.3 2883.68 13833.3 2666.73C13833.3 2449.78 13878.4 2246.27 13968.7 2056.2C14058.9 1866.13 14188.5 1711.58 14357.5 1592.55C14528.4 1473.52 14732 1414 14968.2 1414C15102.6 1414 15219.7 1433.2 15319.6 1471.6C15419.4 1508.07 15502 1553.19 15567.3 1606.95C15634.5 1658.79 15684.4 1709.66 15717.1 1759.58C15717.1 1606.89 15840.8 1483.12 15993.5 1483.12H16281.6C16593.4 1483.12 16846.1 1735.87 16846.1 2047.66V3288.68C16846.1 3597.28 16596 3847.46 16287.4 3847.46H16059.8ZM14945.1 2666.73C14945.1 2732.01 14961.4 2793.44 14994.1 2851.04C15026.7 2908.64 15071.8 2954.71 15129.5 2989.27C15187.1 3023.83 15254.3 3041.11 15331.1 3041.11C15407.9 3041.11 15475.1 3023.83 15532.7 2989.27C15590.3 2954.71 15635.4 2908.64 15668.1 2851.04C15700.7 2793.44 15717.1 2732.01 15717.1 2666.73C15717.1 2601.45 15700.7 2540.02 15668.1 2482.42C15635.4 2424.82 15590.3 2378.75 15532.7 2344.19C15475.1 2307.71 15407.9 2289.47 15331.1 2289.47C15254.3 2289.47 15187.1 2307.71 15129.5 2344.19C15071.8 2378.75 15026.7 2424.82 14994.1 2482.42C14961.4 2540.02 14945.1 2601.45 14945.1 2666.73Z" fill="url(#paint4_linear_1415_15)"/>
<path d="M18073.6 3280.03C18073.6 3593.41 17819.6 3847.46 17506.2 3847.46C17192.8 3847.46 16938.7 3593.41 16938.7 3280.03V2050.55C16938.7 1737.17 17192.8 1483.12 17506.2 1483.12H17736.7C17922.8 1483.12 18073.6 1633.97 18073.6 1820.06H18059.2C18080.3 1777.82 18119.7 1725.02 18177.3 1661.67C18236.8 1598.31 18319.4 1541.67 18425 1491.76C18532.5 1439.92 18667 1414 18828.3 1414C18935.8 1414 19038.5 1432.24 19136.5 1468.72C19269.2 1515.54 19311.5 1664.75 19251.1 1791.85L18999.3 2322.11C18964.8 2394.74 18849.6 2412.03 18779.3 2372.99C18710.2 2332.67 18623.8 2312.51 18520.1 2312.51C18408.7 2312.51 18320.4 2335.55 18255.1 2381.63C18189.8 2425.78 18142.7 2481.46 18113.9 2548.66C18087 2613.93 18073.6 2678.25 18073.6 2741.61V3280.03Z" fill="url(#paint5_linear_1415_15)"/>
<path d="M20257.6 2946.07C20184.9 2946.07 20133.2 3017.07 20188.6 3064.15C20229 3094.86 20279.9 3118.86 20341.3 3136.14C20404.7 3153.42 20475.7 3162.06 20554.5 3162.06C20638.9 3162.06 20721.5 3158.22 20802.2 3150.54C20882.8 3142.86 20956.8 3130.38 21024 3113.1C21115.7 3089.52 21225.1 3116.73 21272.1 3198.98L21491.6 3583.47C21547.4 3681.19 21514.1 3801.98 21409.9 3844.58C21327.4 3877.22 21210.2 3906.98 21058.5 3933.86C20908.7 3960.74 20714.8 3974.18 20476.7 3974.18C20209.8 3974.18 19967.8 3929.06 19750.8 3838.82C19533.8 3748.59 19361 3609.4 19232.4 3421.25C19105.6 3231.18 19042.3 2990.23 19042.3 2698.41C19042.3 2468.02 19095.1 2260.67 19200.7 2076.36C19306.3 1890.13 19459 1743.26 19658.7 1635.75C19858.4 1526.31 20100.3 1471.6 20384.5 1471.6C20659.1 1471.6 20896.3 1517.67 21096 1609.83C21297.6 1701.98 21452.2 1844.06 21559.7 2036.05C21669.2 2226.11 21723.9 2469.94 21723.9 2767.52C21723.9 2782.88 21722.9 2813.6 21721 2859.68C21721 2911.04 21679.8 2946.07 21628.5 2946.07H20257.6ZM20497.2 2482.42C20583.7 2482.42 20660.2 2406.45 20620.7 2329.48C20619.8 2327.64 20618.8 2325.83 20617.8 2324.03C20596.7 2281.79 20567.9 2251.07 20531.4 2231.87C20494.9 2210.76 20451.7 2200.2 20401.8 2200.2C20357.6 2200.2 20315.4 2209.8 20275.1 2228.99C20236.7 2246.27 20205 2276.03 20180 2318.27C20177.7 2321.98 20175.5 2325.82 20173.4 2329.78C20132.9 2406.04 20211 2482.42 20297.4 2482.42H20497.2Z" fill="url(#paint6_linear_1415_15)"/>
<path d="M4798.62 806.469C5042.31 806.469 5261.37 855.699 5455.81 954.155C5615.07 1031.65 5747.23 1145.54 5852.29 1295.83C5626.12 1315.95 5420.65 1373.45 5235.88 1468.33C5001.38 1588.74 4817.43 1755.38 4684.04 1968.25C4638.6 2040.03 4600.9 2115.56 4570.94 2194.83C4559.42 2140.15 4543.28 2088.03 4522.53 2038.47C4475.86 1927.06 4370.87 1871.36 4207.54 1871.36C4098.66 1871.36 4010.52 1898.56 3943.11 1952.97C3875.71 2004.79 3826.45 2072.16 3795.34 2155.07C3766.83 2235.39 3752.57 2320.89 3752.57 2411.57V3392.5C3752.57 3778 3440.06 4090.52 3054.55 4090.52C2669.05 4090.52 2356.53 3778.01 2356.53 3392.5V2411.57C2356.53 2274.25 2334.5 2149.88 2290.43 2038.47C2248.95 1927.06 2145.25 1871.36 1979.33 1871.36C1870.45 1871.36 1781.01 1898.56 1711.02 1952.97C1643.61 2004.79 1594.36 2072.16 1563.25 2155.07C1532.14 2235.39 1516.58 2320.89 1516.58 2411.57V3332.23C1516.58 3751.02 1177.08 4090.52 758.291 4090.52C339.498 4090.52 6.97363e-05 3751.02 0 3332.23V1658.03C0.000672477 1239.24 339.499 899.743 758.291 899.743H1085.19C1323.44 899.743 1516.58 1092.89 1516.58 1331.14C1550.28 1250.82 1622.87 1170.5 1734.35 1090.18C1848.42 1009.86 1984.52 942.495 2142.66 888.085C2303.39 833.675 2468.01 806.47 2636.52 806.469C2823.17 806.469 2978.72 827.198 3103.16 868.654C3230.19 907.518 3336.48 967.11 3422.03 1047.43C3507.58 1125.16 3582.76 1221.02 3647.57 1335.03C3681.28 1254.71 3753.87 1174.39 3865.34 1094.07C3976.82 1011.16 4114.21 942.495 4277.54 888.085C4440.86 833.674 4614.56 806.469 4798.62 806.469Z" fill="url(#paint7_linear_1415_15)"/>
<defs>
<linearGradient id="paint0_linear_1415_15" x1="0" y1="2045.26" x2="21723.9" y2="2045.26" gradientUnits="userSpaceOnUse">
<stop offset="1" stop-color="#06191D"/>
</linearGradient>
<linearGradient id="paint1_linear_1415_15" x1="0" y1="2045.26" x2="21723.9" y2="2045.26" gradientUnits="userSpaceOnUse">
<stop offset="1" stop-color="#06191D"/>
</linearGradient>
<linearGradient id="paint2_linear_1415_15" x1="0" y1="2045.26" x2="21723.9" y2="2045.26" gradientUnits="userSpaceOnUse">
<stop offset="1" stop-color="#06191D"/>
</linearGradient>
<linearGradient id="paint3_linear_1415_15" x1="0" y1="2045.26" x2="21723.9" y2="2045.26" gradientUnits="userSpaceOnUse">
<stop offset="1" stop-color="#06191D"/>
</linearGradient>
<linearGradient id="paint4_linear_1415_15" x1="0" y1="2045.26" x2="21723.9" y2="2045.26" gradientUnits="userSpaceOnUse">
<stop offset="1" stop-color="#06191D"/>
</linearGradient>
<linearGradient id="paint5_linear_1415_15" x1="0" y1="2045.26" x2="21723.9" y2="2045.26" gradientUnits="userSpaceOnUse">
<stop offset="1" stop-color="#06191D"/>
</linearGradient>
<linearGradient id="paint6_linear_1415_15" x1="0" y1="2045.26" x2="21723.9" y2="2045.26" gradientUnits="userSpaceOnUse">
<stop offset="1" stop-color="#06191D"/>
</linearGradient>
<linearGradient id="paint7_linear_1415_15" x1="0" y1="2045.26" x2="21723.9" y2="2045.26" gradientUnits="userSpaceOnUse">
<stop offset="1" stop-color="#06191D"/>
</linearGradient>
</defs>
</svg>
